<svg width="46" height="45" fill="none" xmlns="http://www.w3.org/2000/svg"><path d="M1.75 4.891A3.641 3.641 0 015.391 1.25H40.61a3.641 3.641 0 013.641 3.641v4.892a3.641 3.641 0 01-3.641 3.64H5.39a3.641 3.641 0 01-3.641-3.64V4.89zm0 15.652a3.641 3.641 0 013.641-3.64H40.61a3.641 3.641 0 013.641 3.64v3.913a3.641 3.641 0 01-3.641 3.642H5.39a3.641 3.641 0 01-3.641-3.642v-3.912zm0 14.674a3.641 3.641 0 013.641-3.64H40.61a3.641 3.641 0 013.641 3.64v4.892a3.641 3.641 0 01-3.641 3.641H5.39a3.641 3.641 0 01-3.641-3.641v-4.892z" stroke="#7DD017" stroke-width="2.5"/><rect x="6.37" y="8.804" width="9.783" height="1.957" rx=".978" fill="#7DD017"/><rect x="6.37" y="23.478" width="9.783" height="1.957" rx=".978" fill="#7DD017"/><rect x="6.37" y="39.13" width="9.783" height="1.957" rx=".978" fill="#7DD017"/></svg>