<svg width="28" height="45" fill="none" xmlns="http://www.w3.org/2000/svg"><path fill-rule="evenodd" clip-rule="evenodd" d="M22 2.813H5.5a2.72 2.72 0 00-1.945.823 2.845 2.845 0 00-.805 1.989v33.75c0 .746.29 1.461.805 1.989a2.72 2.72 0 001.945.824H22a2.72 2.72 0 001.945-.824 2.845 2.845 0 00.805-1.989V5.625a2.85 2.85 0 00-.805-1.989A2.72 2.72 0 0022 2.812zM5.5 0a5.439 5.439 0 00-3.89 1.648A5.69 5.69 0 000 5.625v33.75a5.69 5.69 0 001.61 3.977A5.439 5.439 0 005.5 45H22a5.439 5.439 0 003.89-1.648 5.69 5.69 0 001.61-3.977V5.625a5.69 5.69 0 00-1.61-3.977A5.439 5.439 0 0022 0H5.5z" fill="#7DD017"/><path fill-rule="evenodd" clip-rule="evenodd" d="M14 38a2 2 0 100-4 2 2 0 000 4z" fill="#7DD017"/></svg>