<?xml version="1.0" encoding="UTF-8" standalone="no"?>
<svg
   width="46"
   height="45"
   fill="none"
   version="1.1"
   id="svg10"
   sodipodi:docname="thin client.svg"
   inkscape:version="1.1.2 (0a00cf5339, 2022-02-04)"
   xmlns:inkscape="http://www.inkscape.org/namespaces/inkscape"
   xmlns:sodipodi="http://sodipodi.sourceforge.net/DTD/sodipodi-0.dtd"
   xmlns="http://www.w3.org/2000/svg"
   xmlns:svg="http://www.w3.org/2000/svg">
  <defs
     id="defs14" />
  <sodipodi:namedview
     id="namedview12"
     pagecolor="#ffffff"
     bordercolor="#666666"
     borderopacity="1.0"
     inkscape:pageshadow="2"
     inkscape:pageopacity="0.0"
     inkscape:pagecheckerboard="0"
     showgrid="false"
     inkscape:zoom="10.803477"
     inkscape:cx="1.7124117"
     inkscape:cy="23.83492"
     inkscape:window-width="1920"
     inkscape:window-height="1019"
     inkscape:window-x="0"
     inkscape:window-y="0"
     inkscape:window-maximized="1"
     inkscape:current-layer="svg10" />
  <path
     d="M 34.875437,6.525551 C 34.112398,6.7363903 33.238918,7.14803 32.676679,7.5496301 l -0.47188,0.33132 h -12.88131 c -11.4154718,0 -12.9214707,0.020082 -13.2527901,0.1606394 C 5.5988181,8.2323494 5.1871784,8.623909 4.916098,9.1359486 l -0.2208782,0.4016 -0.030124,10.6122744 -0.020082,10.622312 H 2.5868161 c -2.6505579,0 -2.4899185,-0.12048 -2.4397179,1.837319 0.030123,1.29516 0.06024,1.47588 0.3012003,1.99796 0.341359,0.742959 1.1244782,1.526078 1.8674379,1.867437 l 0.5722791,0.27108 H 22.968002 43.047987 l 0.572279,-0.27108 c 0.742959,-0.341359 1.526079,-1.124478 1.867439,-1.867437 0.240959,-0.52208 0.27108,-0.7028 0.301199,-1.99796 0.0502,-1.957799 0.22088,-1.837319 -2.439718,-1.837319 h -2.058195 v -3.845316 -3.855357 l 0.62248,-0.17068 c 1.837319,-0.51204 3.202758,-1.847359 3.734878,-3.664597 0.2008,-0.68272 0.21084,-1.987918 0.01,-2.710798 -0.3012,-1.16464 -1.174679,-2.399559 -2.098358,-2.981879 l -0.431679,-0.271079 -0.0502,-0.86344 c -0.09037,-1.56624 -0.732925,-2.95176 -1.897565,-4.1164 C 40.407468,7.5195102 39.694628,7.0677103 38.66051,6.7062713 38.04807,6.48539 37.716751,6.4351908 36.67259,6.405071 35.768991,6.384989 35.266992,6.415105 34.875432,6.525551 Z m 2.951757,1.5059988 c 0.87348,0.2309195 1.52608,0.6224791 2.26904,1.3553991 1.054199,1.0542001 1.495958,2.1686411 1.495958,3.7750391 0,1.014041 0,1.004001 0.803199,1.46584 0.63252,0.36144 1.224879,0.993959 1.566238,1.666639 0.261041,0.512039 0.291161,0.672679 0.291161,1.526078 0,0.82328 -0.04016,1.03412 -0.27108,1.52608 -0.3514,0.763039 -0.953799,1.385518 -1.706799,1.797159 l -0.63252,0.341359 -9.176553,0.03012 -9.186592,0.02008 -0.53212,-0.26104 c -1.124479,-0.54216 -1.626478,-1.987919 -1.07428,-3.062197 0.461842,-0.913641 1.154601,-1.325279 2.27908,-1.355399 1.124479,-0.04016 1.174678,-0.09036 1.144558,-1.39556 -0.02008,-0.993959 -0.01,-1.044158 0.331321,-1.706799 0.863439,-1.706799 2.771037,-2.329278 4.447716,-1.465839 1.04416,0.54216 1.375478,0.42168 1.686718,-0.622479 0.52208,-1.7871219 1.636519,-2.9517617 3.403558,-3.5541607 0.793159,-0.2710805 1.987918,-0.3012002 2.861397,-0.080321 z M 30.8494,9.4271084 c 0,0.050198 -0.6024,1.1947606 -0.652598,1.2449606 -0.01,0.02008 -0.291162,-0.04016 -0.61244,-0.14056 -0.77308,-0.220881 -2.178679,-0.1506 -2.931678,0.1506 -0.522079,0.21084 -0.592359,0.21084 -9.447632,0.21084 -8.8653156,0 -8.9155146,0 -9.1865945,0.21084 l -0.2610409,0.2008 -0.020082,9.708674 -0.030123,9.708673 H 6.954212 6.2012119 L 6.1710885,20.581543 c -0.010044,-5.582235 0,-10.290994 0.030123,-10.471714 C 6.2313354,9.9291082 6.3518123,9.6881483 6.4622526,9.5777081 6.6530119,9.3869489 6.9040129,9.3869489 18.751204,9.3869489 c 6.656515,0 12.09819,0.020082 12.09819,0.040157 z m -6.525994,3.0120006 c 0,0.02008 -0.14056,0.34136 -0.311241,0.71284 -0.180719,0.381519 -0.36144,0.983919 -0.421679,1.405599 l -0.11044,0.74296 -0.37148,0.06024 c -1.04416,0.18072 -2.248959,1.07428 -2.740918,2.028079 -1.224879,2.419639 0.22088,5.210756 2.921637,5.652516 0.321281,0.06024 3.403559,0.100401 6.987835,0.100401 h 6.395476 v 3.815196 3.815196 H 31.16064 25.638646 l -0.200801,0.26104 c -0.12048,0.150602 -0.21084,0.381521 -0.21084,0.512041 0,0.130519 -0.110441,0.351401 -0.251,0.491959 l -0.251,0.251001 -1.81724,-0.03012 c -1.767038,-0.03011 -1.817238,-0.04016 -2.007998,-0.271077 -0.100401,-0.130521 -0.19076,-0.331319 -0.19076,-0.461839 0,-0.12048 -0.09036,-0.341359 -0.21084,-0.49196 l -0.2008,-0.261047 H 14.775372 9.2634164 v -9.186592 -9.186593 h 7.5299946 c 4.146517,0 7.529995,0.02008 7.529995,0.04016 z m 15.441507,14.48771 -0.03012,3.795117 h -0.753 -0.752999 l -0.03012,-3.795117 -0.02008,-3.785077 h 0.803199 0.803199 z m -20.250665,5.752916 c 0.251002,0.44176 0.783119,0.853399 1.3052,1.003998 0.441759,0.130521 3.855357,0.130521 4.297116,0 0.522082,-0.150599 1.0542,-0.562238 1.305201,-1.003998 l 0.220879,-0.401601 h 8.835192 8.825154 v 0.62248 c 0,0.39156 -0.07028,0.783119 -0.190761,1.04416 -0.220878,0.491959 -0.923678,1.114438 -1.415638,1.254999 -0.230921,0.07028 -6.807115,0.09036 -19.949465,0.07028 L 3.1591004,35.23993 2.7273798,34.938731 C 2.48642,34.76805 2.1551007,34.43673 1.9844216,34.205811 1.7334212,33.83433 1.6832221,33.653611 1.6531023,33.021091 l -0.040157,-0.74296 h 8.8351917 8.845234 z"
     id="path1078"
     style="fill:#7dd017;stroke:none;stroke-width:0.01004;fill-opacity:1" />
</svg>
