<svg width="200" height="47" fill="none" xmlns="http://www.w3.org/2000/svg"><path d="M193.023 17.553c1.918 0 3.448.48 4.588 1.439 1.158.959 1.882 2.226 2.172 3.8h-4.344c-.126-.615-.416-1.095-.869-1.438-.434-.362-.986-.543-1.656-.543-.524 0-.923.117-1.194.352-.272.218-.407.534-.407.95 0 .471.244.824.733 1.06.506.235 1.294.47 2.362.705 1.158.272 2.108.552 2.85.842a4.59 4.59 0 011.928 1.357c.543.634.814 1.485.814 2.552 0 .87-.235 1.638-.706 2.308-.47.67-1.149 1.195-2.036 1.575-.887.38-1.936.57-3.149.57-2.045 0-3.683-.453-4.914-1.358-1.231-.905-1.982-2.199-2.253-3.882h4.479c.073.652.344 1.15.815 1.493.488.344 1.113.516 1.873.516.525 0 .923-.117 1.194-.353.272-.253.408-.579.408-.977 0-.525-.254-.896-.76-1.113-.489-.236-1.295-.48-2.417-.733-1.122-.236-2.045-.489-2.769-.76a4.625 4.625 0 01-1.873-1.304c-.525-.615-.787-1.448-.787-2.497 0-1.358.515-2.453 1.547-3.285 1.032-.85 2.489-1.276 4.371-1.276zm-7.932 7.357c0 .38-.045.796-.135 1.249h-10.507c.054 1.14.344 1.964.869 2.47.525.49 1.194.733 2.009.733.688 0 1.258-.171 1.71-.515a2.41 2.41 0 00.896-1.33h4.914a6.511 6.511 0 01-1.303 2.877c-.67.833-1.52 1.493-2.552 1.982-1.032.47-2.181.706-3.448.706-1.484 0-2.805-.308-3.964-.923-1.14-.634-2.036-1.539-2.687-2.715-.652-1.177-.978-2.552-.978-4.127 0-1.592.317-2.968.95-4.126.652-1.177 1.557-2.073 2.715-2.688 1.159-.634 2.48-.95 3.964-.95 1.502 0 2.824.307 3.964.923a6.408 6.408 0 012.633 2.606c.634 1.104.95 2.38.95 3.828zm-4.696-.706c.018-.995-.254-1.737-.815-2.226-.543-.507-1.221-.76-2.036-.76-.851 0-1.556.253-2.118.76-.561.507-.877 1.249-.95 2.226h5.919zm-16.848-3.611a6.628 6.628 0 012.226-2.199 5.79 5.79 0 012.987-.814v4.968h-1.331c-1.23 0-2.19.263-2.878.787-.669.525-1.004 1.412-1.004 2.661v6.896h-4.642v-15.15h4.642v2.851zm-17.287-3.04c1.159 0 2.154.262 2.987.787a4.735 4.735 0 011.846 2.145v-2.742h4.615v15.149h-4.615V30.15a4.735 4.735 0 01-1.846 2.145c-.833.524-1.828.787-2.987.787-1.248 0-2.371-.308-3.366-.923-.977-.634-1.756-1.539-2.335-2.715-.561-1.177-.841-2.552-.841-4.127 0-1.592.28-2.968.841-4.126.579-1.177 1.358-2.073 2.335-2.688.995-.634 2.118-.95 3.366-.95zm1.494 4.072c-.996 0-1.801.326-2.417.977-.597.652-.896 1.557-.896 2.715 0 1.159.299 2.064.896 2.715.616.652 1.421.977 2.417.977.977 0 1.773-.334 2.389-1.004.633-.67.95-1.566.95-2.688 0-1.14-.317-2.036-.95-2.687-.616-.67-1.412-1.005-2.389-1.005zm-8.036-9.075l-4.533 20.079h-6.055l-3.201-13.458-3.233 13.458h-6.055l-4.532-20.08h5.42l2.346 14.466 3.296-14.465h5.769l3.392 14.501 2.346-14.501h5.04zm-38.07 5.329c1.502 0 2.778.389 3.828 1.167 1.068.778 1.792 1.81 2.172 3.095V12.8h1.9v20.09h-1.9v-4.07c-.38 1.285-1.104 2.316-2.172 3.095-1.05.778-2.326 1.167-3.828 1.167-1.339 0-2.543-.308-3.61-.923-1.05-.615-1.874-1.493-2.471-2.634-.58-1.158-.87-2.506-.87-4.045 0-1.556.29-2.905.87-4.045.597-1.158 1.42-2.036 2.47-2.633 1.05-.616 2.253-.923 3.611-.923zm.489 1.683c-1.666 0-3.005.534-4.019 1.602-.995 1.05-1.493 2.488-1.493 4.316 0 1.828.498 3.276 1.493 4.344 1.014 1.05 2.353 1.575 4.019 1.575 1.049 0 1.99-.245 2.823-.733a5.064 5.064 0 001.982-2.064c.489-.905.733-1.945.733-3.122 0-1.176-.244-2.208-.733-3.095-.471-.905-1.131-1.602-1.982-2.09-.833-.489-1.774-.733-2.823-.733zm-16.555-1.765c1.72 0 3.114.552 4.181 1.656 1.086 1.086 1.63 2.688 1.63 4.806v8.633h-1.874v-8.498c0-1.61-.407-2.841-1.222-3.692-.814-.869-1.927-1.303-3.339-1.303-1.484 0-2.67.48-3.556 1.439-.87.94-1.303 2.335-1.303 4.18v7.874H78.17V18.069h1.927v3.637c.38-1.266 1.068-2.235 2.064-2.904.995-.67 2.135-1.005 3.42-1.005zM71.691 13.67c0-.398.127-.715.38-.95.272-.235.616-.353 1.032-.353.416 0 .751.118 1.005.353.253.235.38.552.38.95 0 .38-.127.688-.38.923-.254.236-.589.353-1.005.353-.416 0-.76-.117-1.031-.353-.254-.235-.38-.543-.38-.923zm2.362 4.398v14.824h-1.927V18.068h1.927zm-4.997-4.316V15.3h-8.47v7.303h7.33v1.493h-7.33v8.796h-1.928v-19.14h10.398z" fill="#25292C"/><path d="M0 23.494C0 10.52 10.519 0 23.494 0 36.47 0 46.988 10.519 46.988 23.494c0 12.976-10.518 23.494-23.494 23.494H0V23.494z" fill="#7DD017"/><path fill-rule="evenodd" clip-rule="evenodd" d="M19.148 27.005a5.957 5.957 0 108.341-8.507 5.957 5.957 0 00-8.34 8.507zm-1.738 1.772a8.439 8.439 0 1011.817-12.051A8.439 8.439 0 0017.41 28.777z" fill="#fff"/><path d="M18.049 26.104l1.873 1.837-8.531 8.7a1.312 1.312 0 01-1.873-1.836l8.53-8.7z" fill="#fff"/><path fill-rule="evenodd" clip-rule="evenodd" d="M16.843 35.224c5.155 2.765 11.715 1.966 16.057-2.39 5.303-5.32 5.289-13.932-.032-19.235-5.32-5.302-13.931-5.288-19.234.032-4.342 4.356-5.12 10.919-2.338 16.065l-1.394.66c-3.05-5.719-2.172-12.983 2.641-17.812 5.904-5.923 15.49-5.938 21.413-.035 5.922 5.903 5.938 15.49.034 21.412-4.794 4.81-12.018 5.724-17.735 2.735l.588-1.431zm-.588 1.432a3.402 3.402 0 01-.18-.103l-.042-.025.222.128z" fill="#fff"/></svg>