<svg width="191" height="45" fill="none" xmlns="http://www.w3.org/2000/svg"><path d="M184.227 16.753c1.831 0 3.291.458 4.379 1.373 1.106.916 1.797 2.125 2.073 3.628h-4.146c-.12-.587-.397-1.045-.829-1.373-.414-.346-.941-.519-1.58-.519-.501 0-.881.113-1.14.337-.26.207-.389.51-.389.907 0 .45.233.786.699 1.01.484.225 1.236.45 2.255.674 1.105.26 2.012.527 2.721.804.708.259 1.321.69 1.839 1.295.519.605.778 1.417.778 2.436 0 .83-.225 1.563-.674 2.202-.449.64-1.097 1.14-1.943 1.503-.847.363-1.849.544-3.006.544-1.952 0-3.516-.431-4.69-1.295-1.175-.864-1.892-2.099-2.151-3.706h4.276c.069.622.328 1.097.777 1.426.466.328 1.062.492 1.788.492.501 0 .881-.112 1.14-.337.259-.242.389-.553.389-.933 0-.5-.242-.855-.726-1.062-.466-.225-1.235-.458-2.306-.7-1.071-.224-1.952-.466-2.643-.725a4.415 4.415 0 01-1.788-1.244c-.501-.587-.751-1.382-.751-2.384 0-1.296.492-2.34 1.477-3.135.984-.812 2.375-1.218 4.171-1.218zm-7.57 7.022c0 .363-.043.76-.129 1.192H166.5c.052 1.088.328 1.874.829 2.358.501.466 1.14.7 1.917.7.657 0 1.201-.165 1.633-.493.432-.328.717-.751.855-1.27h4.69a6.221 6.221 0 01-1.244 2.747c-.639.795-1.451 1.425-2.435 1.892-.985.449-2.082.673-3.291.673-1.417 0-2.678-.293-3.783-.88-1.089-.605-1.944-1.469-2.566-2.592-.621-1.123-.932-2.436-.932-3.938 0-1.52.302-2.833.907-3.939a6.275 6.275 0 012.591-2.565c1.105-.605 2.366-.907 3.783-.907 1.434 0 2.695.294 3.783.88a6.117 6.117 0 012.513 2.488c.605 1.054.907 2.272.907 3.654zm-4.482-.674c.017-.95-.242-1.658-.778-2.124-.518-.484-1.166-.726-1.943-.726-.812 0-1.486.242-2.021.726-.536.483-.838 1.192-.907 2.124h5.649zm-16.08-3.446a6.333 6.333 0 012.124-2.099 5.528 5.528 0 012.851-.777v4.742h-1.27c-1.175 0-2.09.25-2.747.751-.639.501-.958 1.348-.958 2.54v6.581h-4.431V16.934h4.431v2.721zm-16.499-2.902c1.105 0 2.055.25 2.85.751a4.515 4.515 0 011.762 2.047v-2.617h4.405v14.459h-4.405v-2.617a4.515 4.515 0 01-1.762 2.047c-.795.5-1.745.751-2.85.751-1.192 0-2.263-.293-3.213-.88-.933-.605-1.676-1.469-2.229-2.592-.535-1.123-.803-2.436-.803-3.938 0-1.52.268-2.833.803-3.939.553-1.123 1.296-1.978 2.229-2.565.95-.605 2.021-.907 3.213-.907zm1.425 3.887c-.95 0-1.719.31-2.306.933-.57.621-.855 1.485-.855 2.59 0 1.106.285 1.97.855 2.592.587.622 1.356.933 2.306.933.933 0 1.693-.32 2.28-.96.605-.638.907-1.493.907-2.564 0-1.089-.302-1.944-.907-2.566-.587-.639-1.347-.958-2.28-.958zm-7.67-8.663l-4.326 19.165h-5.779l-3.055-12.845-3.086 12.845h-5.779L107 11.977h5.174l2.238 13.807 3.147-13.806h5.506l3.237 13.84 2.239-13.84h4.81zm-36.335 5.087c1.434 0 2.652.371 3.654 1.114a5.48 5.48 0 012.073 2.954v-8.914h1.814v19.175h-1.814v-3.887a5.48 5.48 0 01-2.073 2.954c-1.002.743-2.22 1.114-3.654 1.114-1.278 0-2.427-.293-3.446-.88-1.002-.588-1.788-1.426-2.358-2.514-.553-1.106-.83-2.393-.83-3.861 0-1.486.277-2.772.83-3.86.57-1.106 1.356-1.944 2.358-2.514 1.002-.588 2.15-.881 3.446-.881zm.467 1.606c-1.59 0-2.868.51-3.835 1.53-.95 1.001-1.425 2.374-1.425 4.119 0 1.745.475 3.127 1.425 4.146.967 1.002 2.245 1.503 3.835 1.503 1.001 0 1.9-.233 2.694-.7a4.833 4.833 0 001.892-1.97c.466-.863.7-1.856.7-2.979s-.234-2.107-.7-2.954a4.795 4.795 0 00-1.892-1.995c-.794-.466-1.693-.7-2.694-.7zm-15.8-1.684c1.64 0 2.97.527 3.99 1.58 1.036 1.037 1.555 2.566 1.555 4.587v8.24H85.44v-8.11c0-1.538-.389-2.712-1.166-3.524-.778-.83-1.84-1.244-3.187-1.244-1.417 0-2.548.458-3.395 1.373-.829.899-1.244 2.229-1.244 3.99v7.515h-1.84V17.245h1.84v3.473c.363-1.21 1.02-2.134 1.97-2.773.95-.64 2.038-.959 3.264-.959zm-13.258-3.939c0-.38.12-.682.362-.906.26-.225.588-.337.985-.337s.717.112.959.337c.242.224.363.526.363.906 0 .363-.121.657-.363.881-.242.225-.562.337-.959.337-.397 0-.726-.112-.985-.337-.242-.224-.362-.518-.362-.88zm2.254 4.198v14.148h-1.84V17.245h1.84zm-4.77-4.119v1.476h-8.085v6.97h6.996v1.426h-6.996v8.395h-1.84V13.126h9.925z" fill="#fff"/><path d="M0 22.424C0 10.039 10.04 0 22.424 0s22.423 10.04 22.423 22.424-10.04 22.423-22.423 22.423H0V22.424z" fill="#7DD017"/><path fill-rule="evenodd" clip-rule="evenodd" d="M18.275 25.775a5.686 5.686 0 107.962-8.12 5.686 5.686 0 00-7.962 8.12zm-1.658 1.691a8.054 8.054 0 1011.278-11.502 8.054 8.054 0 00-11.278 11.502z" fill="#fff"/><path d="M17.226 24.915l1.788 1.752-8.142 8.304a1.252 1.252 0 11-1.788-1.752l8.142-8.304z" fill="#fff"/><path fill-rule="evenodd" clip-rule="evenodd" d="M16.075 33.62c4.92 2.638 11.181 1.875 15.326-2.282 5.06-5.078 5.047-13.297-.03-18.358-5.078-5.062-13.297-5.048-18.359.03-4.144 4.157-4.886 10.42-2.231 15.333l-1.33.629c-2.912-5.457-2.073-12.391 2.52-17 5.635-5.652 14.784-5.667 20.437-.033 5.652 5.634 5.667 14.784.033 20.436-4.575 4.59-11.47 5.463-16.927 2.61l.56-1.366zm-.56 1.366a3.957 3.957 0 01-.173-.099 8.272 8.272 0 00-.04-.023l.212.122z" fill="#fff"/></svg>