<svg width="22" height="18" fill="none" xmlns="http://www.w3.org/2000/svg"><path d="M8.26 13.21l.21-.231V11.84L5.036 4.588h-1.6L0 11.841v1.193l.187.203a5.487 5.487 0 004.024 1.764h.019a5.486 5.486 0 004.03-1.791zm-1.201-.786a4.011 4.011 0 01-2.834 1.165h-.014a4.01 4.01 0 01-2.8-1.118v-.312l2.824-5.96 2.824 5.96v.265zm10.682-7.836h-1.6l-3.435 7.253v1.193l.187.203a5.487 5.487 0 004.024 1.764h.019a5.487 5.487 0 004.03-1.791l.21-.231V11.84l-3.435-7.253zm2.024 7.836a4.011 4.011 0 01-2.834 1.165h-.014a4.01 4.01 0 01-2.8-1.118v-.312l2.824-5.96 2.824 5.96v.265z" fill="#25292C"/><path d="M11.294 5.582c0-.442.303-.815.67-1.06a2.48 2.48 0 00.675-.676c.246-.366.619-.67 1.06-.67h3.242a.706.706 0 000-1.411h-3.24c-.442 0-.816-.305-1.062-.672a2.472 2.472 0 00-4.102 0c-.246.367-.62.672-1.062.672h-3.24a.706.706 0 100 1.411h3.242c.442 0 .814.304 1.06.67a2.48 2.48 0 00.676.675c.366.246.67.62.67 1.06v10.007a1 1 0 01-1 1H6A.706.706 0 006 18h9.176a.706.706 0 100-1.412h-2.882a1 1 0 01-1-1V5.582zM9.529 2.47a1.059 1.059 0 112.118 0 1.059 1.059 0 01-2.118 0z" fill="#25292C"/></svg>