<svg width="64" height="64" fill="none" xmlns="http://www.w3.org/2000/svg"><path d="M32 5.5a26.49 26.49 0 00-20.28 43.55c.26.32.53.62.84 1l.25.27.44.45.21.2.24.23c.302.3.619.583.95.85.36.32.73.63 1.08.89.35.26.64.49 1 .72.067.061.141.115.22.16.23.17.47.32.66.44l.61.38h.06c.75.45 1.47.84 2.2 1.2h.11c.33.16.65.3 1 .43 1.238.53 2.515.965 3.82 1.3.39.1.78.19 1.18.27.4.08.76.16 1.12.21l.46.07c.28.05.58.08.86.11l.52.06c.3 0 .62 0 .94.06h3.04c.32 0 .64 0 1-.07l.45-.05c.31 0 .61-.06.8-.1l.51-.08c.4 0 .78-.13 1.16-.21l1.21-.27a27.462 27.462 0 003.77-1.29c.33-.14.65-.28 1-.44l-.66-1.35.77 1.3c.73-.36 1.45-.75 2.2-1.2l.09-.06.52-.33a6.99 6.99 0 00.63-.41l.28-.19c.34-.23.68-.49 1-.72.32-.23.75-.6 1.08-.89.33-.29.67-.57.93-.83l.3-.29-.2-.2a1.5 1.5 0 00.87-.47l.26-.28c.27-.29.54-.59.8-.91A26.49 26.49 0 0032 5.5zm18 41.62v.05c-.24.28-.47.55-.68.77l-.33.35a1.54 1.54 0 00-.37.77l-.2-.2-.21.2c-.26.25-.52.49-.82.74-.3.25-.63.53-1 .8s-.56.43-.89.67l-.21.13c-.16.12-.33.23-.56.37l-.47.3h-.06c-.67.41-1.31.77-1.89 1a1.365 1.365 0 00-.2.09c-.27.13-.53.25-.83.37-1.085.462-2.2.846-3.34 1.15l-1.12.32c-.33.07-.65.14-1 .19-.12 0-.24.05-.46.07-.22.02-.44.06-.69.09h-.43c-.27 0-.54.05-.82.06h-.32c-.733.05-1.468.05-2.2 0h-.28c-.28 0-.55 0-.78-.06h-.49l-.76-.1-.42-.06c-.34 0-.66-.12-1-.19-.34-.07-.73-.16-1.06-.24a23.79 23.79 0 01-3.39-1.16c-.28-.11-.54-.23-.78-.34l-.15-.08a20.306 20.306 0 01-2-1.08h-.06l-.53-.33c-.17-.11-.34-.22-.5-.34l-.12-.07a.829.829 0 00-.15-.11c-.28-.2-.56-.4-.86-.64-.3-.24-.65-.51-1-.81-.35-.3-.53-.46-.84-.76l-.17-.16-.21-.21-.35-.35-.23-.32c-.25-.26-.48-.53-.72-.81v-.05a23.5 23.5 0 1136 0l-.05-.02z" fill="url(#paint0_linear_206_9355)"/><path d="M45.56 18.44a1.49 1.49 0 00-2.12 0L32 29.88 20.56 18.44a1.5 1.5 0 00-2.12 2.12L29.88 32 18.44 43.44a1.492 1.492 0 000 2.12 1.5 1.5 0 002.12 0L32 34.12l11.44 11.44a1.5 1.5 0 002.448-.486 1.49 1.49 0 00-.328-1.634L34.12 32l11.44-11.44a1.49 1.49 0 000-2.12z" fill="url(#paint1_linear_206_9355)"/><defs><linearGradient id="paint0_linear_206_9355" x1="5.5" y1="32" x2="58.5" y2="32" gradientUnits="userSpaceOnUse"><stop stop-color="#FD2411"/><stop offset=".31" stop-color="#DE170C"/><stop offset=".76" stop-color="#B70606"/><stop offset="1" stop-color="#A80004"/></linearGradient><linearGradient id="paint1_linear_206_9355" x1="522.1" y1="17.997" x2="1306.26" y2="17.997" gradientUnits="userSpaceOnUse"><stop stop-color="#FD2411"/><stop offset=".31" stop-color="#DE170C"/><stop offset=".76" stop-color="#B70606"/><stop offset="1" stop-color="#A80004"/></linearGradient></defs></svg>