<?xml version="1.0" encoding="UTF-8" standalone="no"?>
<svg
   width="297mm"
   height="210mm"
   fill="none"
   version="1.1"
   id="svg12"
   sodipodi:docname="logo-round.svg"
   inkscape:version="1.1.2 (0a00cf5339, 2022-02-04)"
   inkscape:export-filename="/home/vladvons/Projects/py/py-vCrawler/html/assets/images/logo-round.png"
   inkscape:export-xdpi="96"
   inkscape:export-ydpi="96"
   xmlns:inkscape="http://www.inkscape.org/namespaces/inkscape"
   xmlns:sodipodi="http://sodipodi.sourceforge.net/DTD/sodipodi-0.dtd"
   xmlns="http://www.w3.org/2000/svg"
   xmlns:svg="http://www.w3.org/2000/svg">
  <defs
     id="defs16">
    <inkscape:path-effect
       effect="offset"
       id="path-effect11240"
       is_visible="true"
       lpeversion="1"
       linejoin_type="miter"
       unit="mm"
       offset="0.2"
       miter_limit="4"
       attempt_force_join="false"
       update_on_knot_move="true" />
    <inkscape:path-effect
       effect="offset"
       id="path-effect11238"
       is_visible="true"
       lpeversion="1"
       linejoin_type="miter"
       unit="mm"
       offset="0"
       miter_limit="4"
       attempt_force_join="false"
       update_on_knot_move="true" />
  </defs>
  <sodipodi:namedview
     id="namedview14"
     pagecolor="#808080"
     bordercolor="#666666"
     borderopacity="1.0"
     inkscape:pageshadow="2"
     inkscape:pageopacity="0"
     inkscape:pagecheckerboard="0"
     showgrid="false"
     inkscape:zoom="3.5268647"
     inkscape:cx="107.88619"
     inkscape:cy="90.0233"
     inkscape:window-width="1920"
     inkscape:window-height="1019"
     inkscape:window-x="0"
     inkscape:window-y="0"
     inkscape:window-maximized="1"
     inkscape:current-layer="g1568"
     inkscape:lockguides="false"
     showguides="true"
     inkscape:guide-bbox="true"
     units="mm"
     inkscape:document-units="mm"
     inkscape:snap-global="false">
    <sodipodi:guide
       position="154.09253,2.5160142"
       orientation="0,-1"
       id="guide12777" />
  </sodipodi:namedview>
  <g
     id="g28195"
     transform="matrix(1.1569577,0,0,1.1569577,-220.46233,-193.37452)"
     inkscape:export-filename="/home/vladvons/Projects/py/py-vCrawler/html/assets/images/logo-big.png"
     inkscape:export-xdpi="96"
     inkscape:export-ydpi="96">
    <g
       id="g1568"
       transform="translate(17.54765,-3.724281)"
       inkscape:export-filename="/home/vladvons/Projects/py/py-vCrawler/html/assets/images/g1568.png"
       inkscape:export-xdpi="96"
       inkscape:export-ydpi="96">
      <circle
         style="fill:#ffffff;stroke-width:1.26385"
         id="path1184"
         cx="294.49365"
         cy="264.04483"
         r="70.263527" />
      <g
         id="g956"
         transform="translate(6.1560564,14.213304)">
        <g
           id="g936"
           transform="matrix(2.1044001,0,0,2.1044001,238.89682,200.39075)"
           inkscape:path-effect="#path-effect11238">
          <path
             d="M 0,23.494 C 0,10.52 10.519,0 23.494,0 36.47,0 46.988,10.519 46.988,23.494 46.988,36.47 36.47,46.988 23.494,46.988 H 0 Z"
             fill="#7dd017"
             id="path4"
             inkscape:original-d="M 0,23.494 C 0,10.52 10.519,0 23.494,0 36.47,0 46.988,10.519 46.988,23.494 46.988,36.47 36.47,46.988 23.494,46.988 H 0 Z" />
          <path
             fill-rule="evenodd"
             clip-rule="evenodd"
             d="m 19.148,27.005 a 5.957,5.957 0 1 0 8.341,-8.507 5.957,5.957 0 0 0 -8.34,8.507 z M 17.41,28.777 A 8.4390179,8.4390179 0 1 0 29.227,16.726 8.4390179,8.4390179 0 0 0 17.41,28.777 Z"
             fill="#ffffff"
             id="path6"
             inkscape:original-d="m 19.148,27.005 a 5.957,5.957 0 1 0 8.341,-8.507 5.957,5.957 0 0 0 -8.34,8.507 z M 17.41,28.777 A 8.4390179,8.4390179 0 1 0 29.227,16.726 8.4390179,8.4390179 0 0 0 17.41,28.777 Z" />
          <path
             d="m 18.049,26.104 1.873,1.837 -8.531,8.7 A 1.312,1.312 0 0 1 9.518,34.805 l 8.53,-8.7 z"
             fill="#ffffff"
             id="path8"
             inkscape:original-d="m 18.049,26.104 1.873,1.837 -8.531,8.7 A 1.312,1.312 0 0 1 9.518,34.805 l 8.53,-8.7 z" />
          <path
             fill-rule="evenodd"
             clip-rule="evenodd"
             d="M 16.843,35.224 C 21.998,37.989 28.558,37.19 32.9,32.834 38.203,27.514 38.189,18.902 32.868,13.599 27.548,8.297 18.937,8.311 13.634,13.631 9.292,17.987 8.514,24.55 11.296,29.696 l -1.394,0.66 C 6.852,24.637 7.73,17.373 12.543,12.544 c 5.904,-5.923 15.49,-5.938 21.413,-0.035 5.922,5.903 5.938,15.49 0.034,21.412 -4.794,4.81 -12.018,5.724 -17.735,2.735 l 0.588,-1.431 z m -0.588,1.432 a 3.402,3.402 0 0 1 -0.18,-0.103 l -0.042,-0.025 z"
             fill="#ffffff"
             id="path10"
             inkscape:original-d="M 16.843,35.224 C 21.998,37.989 28.558,37.19 32.9,32.834 38.203,27.514 38.189,18.902 32.868,13.599 27.548,8.297 18.937,8.311 13.634,13.631 9.292,17.987 8.514,24.55 11.296,29.696 l -1.394,0.66 C 6.852,24.637 7.73,17.373 12.543,12.544 c 5.904,-5.923 15.49,-5.938 21.413,-0.035 5.922,5.903 5.938,15.49 0.034,21.412 -4.794,4.81 -12.018,5.724 -17.735,2.735 l 0.588,-1.431 z m -0.588,1.432 a 3.402,3.402 0 0 1 -0.18,-0.103 l -0.042,-0.025 z" />
        </g>
        <g
           aria-label="FW"
           id="text2139"
           style="font-size:23.1997px;line-height:1.25;mix-blend-mode:normal;fill:#ffffff;stroke-width:0.579969;stroke-miterlimit:4;stroke-dasharray:none;paint-order:normal"
           transform="translate(0.97455912,-1.0324892)"
           inkscape:path-effect="#path-effect11240">
          <g
             id="g945">
            <path
               d="m 238.24219,281.70508 v 18.2207 h 3.59765 v -8.07617 h 6.70508 v -3.23438 h -6.70508 v -3.67578 h 7.43164 v -3.23437 z"
               id="path8904"
               style="fill:#008000;stroke-width:0.579969;stroke-miterlimit:4;stroke-dasharray:none;paint-order:normal"
               inkscape:original-d="m 238.89682,282.35962 h 9.71941 v 1.92576 h -7.43115 v 4.98431 h 6.70616 v 1.92576 h -6.70616 v 8.07685 h -2.28826 z" />
            <path
               d="m 271.37109,274.41406 -5.08007,19.58789 -3.0625,-12.29687 h -3.5918 l -3.03711,12.23828 -3.04492,-12.23828 h -3.65821 l 4.56446,18.2207 h 3.89844 l 3.08789,-12.58008 3.05859,12.58008 h 3.88672 l 6.5625,-23.50195 z"
               id="path8906"
               style="stroke-width:0.579969;stroke-miterlimit:4;stroke-dasharray:none;paint-order:normal"
               inkscape:original-d="m 250.73456,282.35962 h 2.31091 l 3.55699,14.29591 3.54565,-14.29591 h 2.57145 l 3.55699,14.29591 5.51401,-21.25636 2.39752,1.34313 -6.29163,22.53 h -2.87731 l -3.56831,-14.68106 -3.6023,14.68106 h -2.8773 z"
               sodipodi:nodetypes="cccccccccccccc" />
          </g>
        </g>
      </g>
      <ellipse
         style="fill:none;stroke-width:0.864336"
         id="path1158"
         cx="294.49365"
         cy="264.04483"
         rx="16.132771"
         ry="9.9706011" />
    </g>
  </g>
</svg>
