<?xml version="1.0" encoding="UTF-8" standalone="no"?>
<svg
   width="297mm"
   height="210mm"
   fill="none"
   version="1.1"
   id="svg12"
   sodipodi:docname="logo-big.svg"
   inkscape:version="1.1.2 (0a00cf5339, 2022-02-04)"
   inkscape:export-filename="/home/vladvons/Projects/py/py-vCrawler/html/assets/images/logo-big.png"
   inkscape:export-xdpi="96"
   inkscape:export-ydpi="96"
   xmlns:inkscape="http://www.inkscape.org/namespaces/inkscape"
   xmlns:sodipodi="http://sodipodi.sourceforge.net/DTD/sodipodi-0.dtd"
   xmlns="http://www.w3.org/2000/svg"
   xmlns:svg="http://www.w3.org/2000/svg">
  <defs
     id="defs16" />
  <sodipodi:namedview
     id="namedview14"
     pagecolor="#808080"
     bordercolor="#666666"
     borderopacity="1.0"
     inkscape:pageshadow="2"
     inkscape:pageopacity="0"
     inkscape:pagecheckerboard="0"
     showgrid="false"
     inkscape:zoom="2.02"
     inkscape:cx="182.67327"
     inkscape:cy="55.693069"
     inkscape:window-width="1920"
     inkscape:window-height="1019"
     inkscape:window-x="0"
     inkscape:window-y="0"
     inkscape:window-maximized="1"
     inkscape:current-layer="g28195"
     inkscape:lockguides="false"
     showguides="true"
     inkscape:guide-bbox="true"
     units="mm"
     inkscape:document-units="mm">
    <sodipodi:guide
       position="154.09253,2.5160142"
       orientation="0,-1"
       id="guide12777" />
  </sodipodi:namedview>
  <g
     id="g28195"
     transform="matrix(1.1569577,0,0,1.1569577,-220.46233,-193.37452)"
     inkscape:export-filename="/home/vladvons/Projects/py/py-vCrawler/html/assets/images/logo-big.png"
     inkscape:export-xdpi="96"
     inkscape:export-ydpi="96">
    <g
       id="g27956"
       transform="matrix(1.1414943,0,0,0.83731333,168.51493,137.39285)"
       inkscape:export-filename="/home/vladvons/Projects/py/py-vCrawler/html/assets/images/g1568.png"
       inkscape:export-xdpi="96"
       inkscape:export-ydpi="96"
       style="stroke:#7dd017;stroke-opacity:1">
      <rect
         style="fill:#ffffff;fill-opacity:1;stroke:#7dd017;stroke-width:4.38372;stroke-opacity:1"
         id="rect2079"
         width="159.00247"
         height="110.27689"
         x="32.187847"
         y="63.773972"
         rx="1.2733454" />
    </g>
    <g
       id="g1568"
       transform="translate(17.54765,-3.724281)"
       inkscape:export-filename="/home/vladvons/Projects/py/py-vCrawler/html/assets/images/g1568.png"
       inkscape:export-xdpi="96"
       inkscape:export-ydpi="96">
      <g
         id="g936"
         transform="matrix(0.99525467,0,0,0.99525467,291.01335,200.39075)">
        <path
           d="M 0,23.494 C 0,10.52 10.519,0 23.494,0 36.47,0 46.988,10.519 46.988,23.494 46.988,36.47 36.47,46.988 23.494,46.988 H 0 Z"
           fill="#7dd017"
           id="path4" />
        <path
           fill-rule="evenodd"
           clip-rule="evenodd"
           d="m 19.148,27.005 a 5.957,5.957 0 1 0 8.341,-8.507 5.957,5.957 0 0 0 -8.34,8.507 z M 17.41,28.777 A 8.4390179,8.4390179 0 1 0 29.227,16.726 8.4390179,8.4390179 0 0 0 17.41,28.777 Z"
           fill="#ffffff"
           id="path6" />
        <path
           d="m 18.049,26.104 1.873,1.837 -8.531,8.7 A 1.312,1.312 0 0 1 9.518,34.805 l 8.53,-8.7 z"
           fill="#ffffff"
           id="path8" />
        <path
           fill-rule="evenodd"
           clip-rule="evenodd"
           d="M 16.843,35.224 C 21.998,37.989 28.558,37.19 32.9,32.834 38.203,27.514 38.189,18.902 32.868,13.599 27.548,8.297 18.937,8.311 13.634,13.631 9.292,17.987 8.514,24.55 11.296,29.696 l -1.394,0.66 C 6.852,24.637 7.73,17.373 12.543,12.544 c 5.904,-5.923 15.49,-5.938 21.413,-0.035 5.922,5.903 5.938,15.49 0.034,21.412 -4.794,4.81 -12.018,5.724 -17.735,2.735 l 0.588,-1.431 z m -0.588,1.432 a 3.402,3.402 0 0 1 -0.18,-0.103 l -0.042,-0.025 z"
           fill="#ffffff"
           id="path10" />
      </g>
      <text
         xml:space="preserve"
         style="font-style:normal;font-weight:normal;font-size:40px;line-height:0.85;font-family:sans-serif;fill:#000000;fill-opacity:1;stroke:none"
         x="208.63551"
         y="246.41101"
         id="text8495"><tspan
           sodipodi:role="line"
           id="tspan8493"
           x="208.63551"
           y="246.41101">Find</tspan><tspan
           sodipodi:role="line"
           x="208.63551"
           y="280.41101"
           id="tspan8497"
           style="font-style:normal;font-variant:normal;font-weight:bold;font-stretch:normal;font-family:sans-serif;-inkscape-font-specification:'sans-serif Bold';fill:#7dd017;fill-opacity:1">Wares</tspan></text>
    </g>
  </g>
</svg>
